<svg width="32" height="33" fill="none" xmlns="http://www.w3.org/2000/svg"><path fill-rule="evenodd" clip-rule="evenodd" d="M21.915 1.4C26.75 1.4 30 4.795 30 9.848v11.776c0 5.053-3.25 8.449-8.085 8.449H9.419c-4.836 0-8.086-3.396-8.086-8.449V9.848c0-5.053 3.25-8.448 8.086-8.448h12.496Zm0 2H9.419c-3.696 0-6.086 2.53-6.086 6.448v11.776c0 3.919 2.39 6.448 6.086 6.448h12.496c3.697 0 6.085-2.53 6.085-6.448V9.848C28 5.93 25.612 3.4 21.915 3.4ZM9.495 12.34a1 1 0 0 1 1 1v9.149a1 1 0 0 1-2 0v-9.149a1 1 0 0 1 1-1Zm6.223-4.38a1 1 0 0 1 1 1v13.527a1 1 0 0 1-2 0V8.96a1 1 0 0 1 1-1Zm6.12 9.214a1 1 0 0 1 1 1v4.313a1 1 0 0 1-2 0v-4.313a1 1 0 0 1 1-1Z" fill="#FE390C"/></svg>