<svg width="42" height="43" fill="none" xmlns="http://www.w3.org/2000/svg"><path fill="#F5F5F5" d="M0 0h42v43H0z"/><g clip-path="url(#a)"><path fill="#fff" d="M-360-4357h1440V176H-360z"/><path fill="#111214" d="M-360-516h1440V96H-360z"/><mask id="b" style="mask-type:alpha" maskUnits="userSpaceOnUse" x="-360" y="-516" width="1440" height="612"><path fill="#111214" d="M-360-516h1440V96H-360z"/></mask><g mask="url(#b)" fill="#fff"><path fill-opacity=".03" d="M-940.966 99.502 347.616-936.748l152.61 189.77-1288.583 1036.25z"/><path fill-opacity=".02" d="m-1088-41.036 1288.583-1036.25 191.643 238.308-1288.583 1036.25z"/></g><circle cx="21" cy="21.715" r="21" fill="#fff" fill-opacity=".1"/><path d="M22.504 30.312v-7.65h2.58l.384-2.994h-2.964V17.76c0-.864.24-1.456 1.481-1.456h1.572v-2.67a20.833 20.833 0 0 0-2.303-.119c-2.28 0-3.847 1.393-3.847 3.95v2.197h-2.564v2.995h2.57v7.655h3.09Z" fill="#fff"/></g><defs><clipPath id="a"><path fill="#fff" transform="translate(-360 -4357)" d="M0 0h1440v4533H0z"/></clipPath></defs></svg>