<svg width="42" height="43" fill="none" xmlns="http://www.w3.org/2000/svg"><path fill="#F5F5F5" d="M0 0h42v43H0z"/><g clip-path="url(#a)"><path fill="#fff" d="M-290-4357h1440V176H-290z"/><path fill="#111214" d="M-290-516h1440V96H-290z"/><mask id="b" style="mask-type:alpha" maskUnits="userSpaceOnUse" x="-290" y="-516" width="1440" height="612"><path fill="#111214" d="M-290-516h1440V96H-290z"/></mask><g mask="url(#b)" fill="#fff"><path fill-opacity=".03" d="M-870.966 99.502 417.616-936.748l152.61 189.77-1288.583 1036.25z"/><path fill-opacity=".02" d="m-1018-41.036 1288.583-1036.25 191.643 238.308-1288.583 1036.25z"/></g><circle cx="21" cy="21.715" r="21" fill="#fff" fill-opacity=".1"/><path d="M21.199 17.6a4.315 4.315 0 1 0 0 8.631 4.315 4.315 0 0 0 0-8.63Zm0 7.119a2.804 2.804 0 1 1 0-5.607 2.804 2.804 0 0 1 0 5.607ZM25.686 18.448a1.006 1.006 0 1 0 0-2.013 1.006 1.006 0 0 0 0 2.013Z" fill="#fff"/><path d="M29.164 16.419a4.3 4.3 0 0 0-2.457-2.457 6.166 6.166 0 0 0-2.04-.392c-.9-.039-1.184-.05-3.463-.05-2.28 0-2.572 0-3.463.05a6.119 6.119 0 0 0-2.038.392 4.293 4.293 0 0 0-2.458 2.457 6.145 6.145 0 0 0-.39 2.04c-.041.898-.053 1.183-.053 3.463 0 2.279 0 2.57.052 3.462.014.699.146 1.387.391 2.042a4.303 4.303 0 0 0 2.459 2.456c.65.255 1.34.397 2.039.42.899.04 1.183.052 3.463.052 2.279 0 2.57 0 3.462-.052a6.174 6.174 0 0 0 2.04-.39 4.305 4.305 0 0 0 2.458-2.458 6.147 6.147 0 0 0 .391-2.04c.04-.899.052-1.183.052-3.463 0-2.28 0-2.57-.052-3.463a6.142 6.142 0 0 0-.393-2.07Zm-1.137 8.896a4.706 4.706 0 0 1-.29 1.576 2.786 2.786 0 0 1-1.598 1.597c-.499.185-1.026.283-1.558.29-.887.041-1.137.051-3.41.051-2.276 0-2.509 0-3.412-.051a4.63 4.63 0 0 1-1.558-.29 2.786 2.786 0 0 1-1.604-1.597 4.74 4.74 0 0 1-.29-1.558c-.04-.887-.05-1.137-.05-3.41 0-2.275 0-2.507.05-3.412.005-.537.104-1.07.29-1.574a2.787 2.787 0 0 1 1.604-1.598 4.675 4.675 0 0 1 1.558-.29c.887-.04 1.137-.052 3.411-.052 2.275 0 2.508 0 3.41.052.533.006 1.06.104 1.56.29a2.79 2.79 0 0 1 1.597 1.598c.184.5.282 1.026.29 1.558.04.887.05 1.136.05 3.41s0 2.519-.04 3.411h-.01Z" fill="#fff"/></g><defs><clipPath id="a"><path fill="#fff" transform="translate(-290 -4357)" d="M0 0h1440v4533H0z"/></clipPath></defs></svg>