<svg width="42" height="43" fill="none" xmlns="http://www.w3.org/2000/svg"><path fill="#F5F5F5" d="M0 0h42v43H0z"/><g clip-path="url(#a)"><path fill="#fff" d="M-150-4357h1440V176H-150z"/><path fill="#111214" d="M-150-516h1440V96H-150z"/><mask id="b" style="mask-type:alpha" maskUnits="userSpaceOnUse" x="-150" y="-516" width="1440" height="612"><path fill="#111214" d="M-150-516h1440V96H-150z"/></mask><g mask="url(#b)" fill="#fff"><path fill-opacity=".03" d="M-730.966 99.502 557.616-936.748l152.61 189.77-1288.583 1036.25z"/><path fill-opacity=".02" d="m-878-41.036 1288.583-1036.25 191.643 238.308-1288.583 1036.25z"/></g><circle cx="21" cy="21.715" r="21" fill="#fff" fill-opacity=".1"/><path d="M14.65 17.432a2.042 2.042 0 1 0 0-4.084 2.042 2.042 0 0 0 0 4.084ZM18.621 18.98v11.33h3.518v-5.603c0-1.479.278-2.91 2.111-2.91 1.808 0 1.83 1.69 1.83 3.003v5.51h3.52v-6.213c0-3.052-.657-5.397-4.224-5.397-1.713 0-2.86.94-3.33 1.83h-.048v-1.55h-3.377Zm-5.732 0h3.523v11.33h-3.523V18.98Z" fill="#fff"/></g><defs><clipPath id="a"><path fill="#fff" transform="translate(-150 -4357)" d="M0 0h1440v4533H0z"/></clipPath></defs></svg>