<svg width="42" height="43" fill="none" xmlns="http://www.w3.org/2000/svg"><path fill="#F5F5F5" d="M0 0h42v43H0z"/><g clip-path="url(#a)"><path fill="#fff" d="M-220-4357h1440V176H-220z"/><path fill="#111214" d="M-220-516h1440V96H-220z"/><mask id="b" style="mask-type:alpha" maskUnits="userSpaceOnUse" x="-220" y="-516" width="1440" height="612"><path fill="#111214" d="M-220-516h1440V96H-220z"/></mask><g mask="url(#b)" fill="#fff"><path fill-opacity=".03" d="M-800.966 99.502 487.616-936.748l152.61 189.77-1288.583 1036.25z"/><path fill-opacity=".02" d="m-948-41.036 1288.583-1036.25 191.643 238.308-1288.583 1036.25z"/></g><circle cx="21" cy="21.715" r="21" fill="#fff" fill-opacity=".1"/><path d="M29.283 17.23a9.27 9.27 0 0 0-3.399-3.398 9.142 9.142 0 0 0-4.684-1.25 9.148 9.148 0 0 0-4.685 1.25 9.267 9.267 0 0 0-3.398 3.398 9.146 9.146 0 0 0-1.25 4.685c0 1.692.416 3.255 1.25 4.686a9.26 9.26 0 0 0 3.399 3.397 9.142 9.142 0 0 0 4.684 1.25 9.148 9.148 0 0 0 4.685-1.25 9.269 9.269 0 0 0 3.399-3.398c.833-1.43 1.25-2.993 1.25-4.685 0-1.692-.417-3.254-1.251-4.685ZM21.2 14.13c1.867 0 3.52.598 4.965 1.791-.858 1.096-2.133 1.998-3.826 2.707-.935-1.692-1.95-3.105-3.044-4.237a7.197 7.197 0 0 1 1.905-.26Zm-6.057 2.93a7.575 7.575 0 0 1 2.53-2.071c1.131 1.12 2.17 2.52 3.117 4.2-1.866.56-3.84.84-5.918.84-.535 0-.939-.012-1.213-.038a7.979 7.979 0 0 1 1.484-2.93Zm-1.727 4.854c0-.05.003-.112.01-.186.006-.075.009-.137.009-.187.237.013.598.018 1.083.018 2.489 0 4.803-.342 6.943-1.026.175.348.356.74.542 1.176-1.232.273-2.496.939-3.79 1.997-1.295 1.059-2.24 2.172-2.837 3.341-1.307-1.48-1.96-3.191-1.96-5.133ZM21.2 29.7c-1.768 0-3.354-.548-4.76-1.642.56-1.107 1.421-2.167 2.585-3.174 1.163-1.008 2.318-1.636 3.463-1.885a27.478 27.478 0 0 1 1.456 6.178 7.621 7.621 0 0 1-2.744.523Zm6.608-3.696A7.794 7.794 0 0 1 25.4 28.45a26.868 26.868 0 0 0-1.287-5.675c.87-.062 1.647-.094 2.333-.094.746 0 1.574.032 2.482.094a7.557 7.557 0 0 1-1.12 3.23Zm-1.157-4.666c-1.083 0-2.084.043-3.006.13a25.26 25.26 0 0 0-.634-1.512c1.928-.845 3.296-1.872 4.105-3.08 1.12 1.32 1.73 2.825 1.83 4.517a46.694 46.694 0 0 0-2.295-.055Z" fill="#fff"/></g><defs><clipPath id="a"><path fill="#fff" transform="translate(-220 -4357)" d="M0 0h1440v4533H0z"/></clipPath></defs></svg>